<?xml version="1.0" standalone="no"?>
<!DOCTYPE svg PUBLIC "-//W3C//DTD SVG 20010904//EN"
 "http://www.w3.org/TR/2001/REC-SVG-20010904/DTD/svg10.dtd">
<svg version="1.0" xmlns="http://www.w3.org/2000/svg"
 width="217.000000pt" height="191.000000pt" viewBox="0 0 217.000000 191.000000"
 preserveAspectRatio="xMidYMid meet">

<g transform="translate(0.000000,191.000000) scale(0.100000,-0.100000)"
fill="#000000" stroke="none">
<path d="M0 955 l0 -955 1085 0 1085 0 0 955 0 955 -1085 0 -1085 0 0 -955z
m1517 853 c18 -18 40 -53 51 -78 12 -28 33 -55 55 -70 45 -31 55 -53 78 -169
10 -52 25 -103 34 -115 47 -64 95 -144 101 -168 5 -23 23 -37 105 -79 86 -44
105 -59 135 -103 38 -56 69 -139 60 -161 -3 -8 -16 -15 -30 -15 -19 0 -26 7
-31 30 -3 16 -24 56 -45 89 -37 57 -46 64 -135 106 -86 41 -98 50 -111 83 -25
63 -48 105 -77 138 -37 44 -54 87 -72 191 -15 85 -17 89 -61 128 -25 22 -57
64 -72 95 -35 71 -53 75 -74 13 -9 -26 -41 -110 -72 -185 -31 -76 -56 -147
-56 -159 0 -44 -71 -184 -121 -236 -38 -40 -49 -59 -49 -85 0 -18 -18 -71 -40
-118 -22 -47 -40 -90 -40 -95 0 -6 -14 -27 -30 -47 -22 -26 -50 -44 -103 -63
-84 -32 -177 -81 -194 -104 -7 -9 -27 -55 -44 -103 -38 -106 -74 -151 -177
-217 -62 -40 -93 -70 -157 -152 -44 -56 -85 -104 -91 -106 -7 -2 -19 3 -28 12
-19 20 -15 30 52 119 70 94 111 135 187 183 92 60 119 93 150 183 46 135 74
163 235 228 96 39 116 52 78 52 -14 0 -31 6 -37 14 -16 19 -10 66 10 79 26 16
68 0 75 -29 6 -23 11 -17 44 54 21 44 41 100 45 124 9 53 34 96 73 125 31 23
92 151 92 193 0 12 31 96 69 188 38 92 74 184 81 205 20 65 87 76 137 25z
m-1387 -758 l0 -40 39 6 c34 5 43 3 65 -19 21 -21 26 -36 26 -74 -1 -70 -44
-113 -98 -97 -15 4 -35 6 -44 5 -16 -2 -18 10 -18 128 0 110 2 131 15 131 11
0 15 -11 15 -40z m298 -47 c17 -15 21 -33 24 -95 l3 -76 -30 0 c-16 0 -42 -3
-57 -7 -58 -15 -103 50 -60 88 9 8 39 18 65 22 42 6 48 10 45 29 -2 16 -11 22
-41 24 -26 2 -39 -1 -43 -12 -8 -22 -36 -20 -32 1 7 39 91 56 126 26z m193 -4
c28 -28 9 -51 -20 -25 -23 21 -65 18 -69 -6 -3 -13 8 -20 43 -29 55 -14 82
-46 65 -78 -24 -46 -84 -54 -127 -16 -23 20 -25 26 -13 34 10 7 18 4 28 -10
19 -27 77 -23 77 5 0 13 -14 23 -44 35 -24 9 -50 26 -58 38 -14 20 -13 24 11
48 31 31 78 33 107 4z m193 -1 c15 -13 29 -38 32 -55 l7 -33 -72 0 c-55 0 -71
-3 -71 -14 0 -39 65 -61 90 -31 22 27 51 17 32 -11 -24 -36 -87 -43 -125 -14
-32 25 -42 69 -27 115 21 64 86 85 134 43z m454 6 c24 -17 30 -44 8 -44 -7 0
-19 7 -26 15 -18 21 -57 19 -70 -4 -15 -29 -12 -87 6 -105 22 -22 50 -20 68 5
8 12 22 19 33 17 16 -3 14 -8 -14 -36 -36 -37 -69 -41 -106 -12 -32 25 -42 78
-23 123 23 56 78 74 124 41z m192 -4 c16 -16 20 -33 20 -95 l0 -74 -27 0 c-16
0 -42 -3 -59 -6 -47 -10 -74 8 -74 50 0 38 12 48 75 60 53 9 57 13 45 36 -13
23 -62 26 -80 4 -14 -17 -40 -20 -40 -6 0 5 12 19 26 30 34 27 88 27 114 1z
m118 9 c29 15 57 14 72 -4 11 -13 15 -13 33 0 28 20 56 19 79 -2 24 -22 27
-173 3 -173 -12 0 -15 14 -15 64 0 80 -6 96 -36 96 -32 0 -44 -27 -44 -99 0
-48 -3 -61 -15 -61 -12 0 -15 14 -15 68 0 70 -10 92 -42 92 -26 0 -38 -31 -38
-99 0 -48 -3 -61 -15 -61 -12 0 -15 16 -15 88 0 86 6 114 21 91 5 -8 12 -8 27
0z m302 1 c26 17 60 11 85 -15 37 -37 35 -106 -4 -146 -31 -31 -51 -35 -82
-19 -17 10 -19 7 -19 -35 0 -33 -4 -45 -15 -45 -13 0 -15 21 -15 128 0 129 4
150 24 132 7 -5 17 -5 26 0z"/>
<path d="M147 972 c-19 -21 -22 -73 -7 -103 15 -27 56 -24 76 6 11 18 15 37
11 62 -9 54 -48 71 -80 35z"/>
<path d="M375 908 c-47 -10 -58 -19 -49 -41 14 -37 99 -10 92 29 -3 18 -7 19
-43 12z"/>
<path d="M720 971 c-15 -30 -14 -31 40 -31 34 0 50 4 50 13 0 38 -71 52 -90
18z"/>
<path d="M1402 909 c-41 -8 -57 -23 -49 -43 8 -19 60 -21 74 -3 15 19 23 46
15 50 -4 2 -22 0 -40 -4z"/>
<path d="M1877 972 c-19 -21 -22 -73 -7 -103 13 -24 52 -25 73 -1 10 10 17 35
17 55 0 59 -48 88 -83 49z"/>
</g>
</svg>
